<?xml version="1.0" standalone="no"?><!DOCTYPE svg PUBLIC "-//W3C//DTD SVG 1.1//EN" "http://www.w3.org/Graphics/SVG/1.1/DTD/svg11.dtd"><svg t="1575037168324" class="icon" viewBox="0 0 1024 1024" version="1.1" xmlns="http://www.w3.org/2000/svg" p-id="4436" xmlns:xlink="http://www.w3.org/1999/xlink" width="200" height="200"><defs><style type="text/css"></style></defs><path d="M826.71 471.016c-32.86 0-64.313 12.288-89.884 35.52v-104.96c-0.104-62.239-50.346-112.736-112.515-113.088v-0.448l-104.267 0.064c22.247-24.384 34.969-56.384 34.969-89.984-0.106-73.678-59.76-133.37-133.356-133.44-73.546 0.141-133.122 59.812-133.227 133.44 0 32.896 12.21 64.256 35.48 89.984H176.107v0.576c-61.435 1.024-111.108 51.2-111.108 112.896h0.32l0.32 116.48c-3.773 27.84 5.945 60.672 36.119 71.424 12.722 4.608 37.59 7.488 60.796-25.28 17.484-24.61 48.842-35.102 77.593-25.96 28.752 9.141 48.316 35.824 48.41 66.024 0 38.4-31.133 69.504-69.426 69.504-22.63 0-43.983-11.264-57.28-30.4-22.247-32.256-48.33-27.008-58.43-23.232-29.792 10.752-39.061 43.776-38.102 67.392v160.384h-0.32c0.106 62.463 50.696 113.053 113.09 113.088h445.775c62.393-0.07 112.955-50.69 113.026-113.152V702.824c24.357 22.272 56.321 35.008 89.884 35.008 73.596-0.106 133.22-59.826 133.291-133.504-0.246-73.599-59.838-133.172-133.355-133.312z m0 202.88c-22.695 0-43.983-11.264-57.28-30.4-22.248-32.384-48.394-27.136-58.495-23.36-29.791 10.752-38.997 43.776-38.038 67.392v160.384c0 27.146-21.981 49.152-49.097 49.152H178.089c-27.137-0.035-49.126-22.05-49.161-49.216h0.32V702.824c38.989 35.692 95.356 44.962 143.702 23.63 48.346-21.33 79.544-69.234 79.536-122.126-0.14-73.653-59.784-133.306-133.355-133.376a132.891 132.891 0 0 0-89.884 35.52v-104.96h-0.32c0.071-27.142 22.05-49.117 49.162-49.152v-0.32l157.264-0.32c3.772 0.512 7.608 0.832 11.508 0.832 24.868 0 50.695-10.816 59.965-37.056 4.539-12.736 7.416-37.568-25.316-60.736-26.833-19.04-36.639-54.318-23.487-84.497 13.152-30.18 45.652-46.98 77.846-40.24 32.193 6.74 55.245 35.17 55.215 68.097 0 22.72-11.252 44.032-30.494 57.472-32.028 22.144-26.914 48.192-23.206 58.432 10.74 29.888 43.024 39.232 67.317 38.08H623.8v0.384c27.106 0 49.097 22.08 49.097 49.152l0.256 116.48c-3.772 27.84 6.01 60.736 36.184 71.488 12.721 4.608 37.59 7.488 60.732-25.28 18.997-26.757 54.126-36.522 84.183-23.401 30.058 13.121 46.815 45.536 40.157 77.68-6.658 32.143-34.909 55.215-67.7 55.289z" p-id="4437" fill="#757575"></path></svg>