<?xml version="1.0" standalone="no"?><!DOCTYPE svg PUBLIC "-//W3C//DTD SVG 1.1//EN" "http://www.w3.org/Graphics/SVG/1.1/DTD/svg11.dtd"><svg t="1614428122535" class="icon" viewBox="0 0 1024 1024" version="1.1" xmlns="http://www.w3.org/2000/svg" p-id="2210" xmlns:xlink="http://www.w3.org/1999/xlink" width="32" height="32"><defs><style type="text/css"></style></defs><path d="M712.471273 100.119273c31.371636 0 59.252364 19.269818 71.121454 48.174545l2.327273 6.376727 171.380364 284.206546c1.582545 5.12 2.653091 10.333091 3.211636 15.592727l0.372364 7.912727v402.990546c0 40.913455-30.859636 74.379636-70.330182 77.730909l-6.656 0.325818H141.870545A77.312 77.312 0 0 1 65.163636 872.122182l-0.279272-6.749091V460.567273c0-5.399273 0.558545-10.705455 1.629091-15.965091l1.954909-7.773091 171.426909-282.158546a77.312 77.312 0 0 1 66.746182-54.272l6.656-0.279272h399.173818z m-288.069818 456.704H351.604364v309.946182h72.797091v-309.992728z m179.2 0h-106.356364v309.946182h72.890182V763.810909h35.467636c63.953455 0 119.761455-32.488727 119.761455-106.216727 0-76.660364-54.970182-100.817455-121.809455-100.817455z m-2.746182 59.019636c36.305455 0 56.552727 10.705455 56.552727 41.611636 0 30.068364-17.687273 46.964364-54.458182 46.964364h-32.907636V615.796364h30.813091z m105.332363-461.451636H319.627636c-10.472727 0-20.014545 3.304727-24.669091 8.471272l-1.861818 2.699637-136.564363 244.363636c-4.747636 9.029818 5.957818 18.199273 22.016 19.688727l4.514909 0.186182h149.364363c13.544727 0 24.901818 5.538909 27.229091 12.8l0.465455 2.792728v20.57309c0 7.633455 9.774545 14.010182 22.714182 15.36l4.980363 0.232728h250.181818c13.544727 0 24.901818-5.538909 27.229091-12.8l0.465455-2.792728v-20.57309c0-7.633455 9.774545-14.010182 22.714182-15.36l4.980363-0.232728h149.317819c16.802909 0 29.463273-8.378182 27.461818-17.408l-0.930909-2.466909-136.517819-244.363636c-3.444364-6.656-14.336-11.170909-26.530909-11.170909z m94.72 184.459636l-64 51.898182H288.907636L224.907636 338.850909h576z m-64-77.824l-64 51.851636H352.907636L288.907636 261.026909h448zM672.907636 198.749091l-32.023272 41.518545h-256l-31.976728-41.518545h320z" p-id="2211"></path></svg>